Special Edition Persented by CurrentHD


Part I


General                          : Back To The Future(1985) BRRip(Dual audio)[Eng Hindi]Current_HD
Format                           : AVI
Format/Info                      : Audio Video Interleave
Format profile                   : OpenDML
File size                        : 898 MiB
Duration                         : 1h 55mn
Overall bit rate                 : 1 083 Kbps
Writing application              : AVI-Mux GUI 

Video
ID                               : 0
Format                           : MPEG-4 Visual
Format profile                   : Advanced Simple@L5
Format settings, BVOP            : Yes
Format settings, QPel            : No
Format settings, GMC             : No warppoints
Format settings, Matrix          : Default (H.263)
Codec ID                         : DX50
Codec ID/Hint                    : DivX 5
Duration                         : 1h 55mn
Bit rate                         : 860 Kbps
Width                            : 680 pixels
Height                           : 368 pixels
Display aspect ratio             : 16:9
Frame rate                       : 23.976 fps
Color space                      : YUV
Chroma subsampling               : 4:2:0
Bit depth                        : 8 bits
Scan type                        : Progressive
Bits/(Pixel*Frame)               : 0.143
Stream size                      : 713 MiB (79%)
Writing library                  : XviD 1.1.0 (UTC 2005-11-22)

Audio #1
ID                               : 1
Format                           : MPEG Audio
Format version                   : Version 1
Format profile                   : Layer 3
Mode                             : Joint stereo
Codec ID                         : 55
Codec ID/Hint                    : MP3
Duration                         : 1h 55mn
Bit rate mode                    : Constant
Bit rate                         : 96.0 Kbps
Channel(s)                       : 2 channels
Sampling rate                    : 48.0 KHz
Stream size                      : 79.6 MiB (9%)
Alignment                        : Aligned on interleaves
Interleave, duration             : 787 ms (18.87 video frames)
Interleave, preload duration     : 216 ms

Audio #2
ID                               : 2
Format                           : MPEG Audio
Format version                   : Version 1
Format profile                   : Layer 3
Mode                             : Joint stereo
Mode extension                   : MS Stereo
Codec ID                         : 55
Codec ID/Hint                    : MP3
Duration                         : 1h 51mn
Bit rate mode                    : Constant
Bit rate                         : 128 Kbps
Channel(s)                       : 2 channels
Sampling rate                    : 44.1 KHz
Stream size                      : 102 MiB (11%)
Alignment                        : Aligned on interleaves
Interleave, duration             : 822 ms (19.72 video frames)
Interleave, preload duration     : 208 ms
Title                            : CurrentHD
Writing library                  : LAME3.96.1



Part II


General                          : Back To The Future Part II(1989) BRRip(Dual audio)[Eng Hindi]Current_HD
Format                           : AVI
Format/Info                      : Audio Video Interleave
Format profile                   : OpenDML
File size                        : 891 MiB
Duration                         : 1h 47mn
Overall bit rate                 : 1 154 Kbps
Writing application              : AVI-Mux GUI 

Video
ID                               : 0
Format                           : MPEG-4 Visual
Format profile                   : Advanced Simple@L5
Format settings, BVOP            : Yes
Format settings, QPel            : No
Format settings, GMC             : No warppoints
Format settings, Matrix          : Default (H.263)
Codec ID                         : DX50
Codec ID/Hint                    : DivX 5
Duration                         : 1h 47mn
Bit rate                         : 931 Kbps
Width                            : 680 pixels
Height                           : 368 pixels
Display aspect ratio             : 16:9
Frame rate                       : 23.976 fps
Color space                      : YUV
Chroma subsampling               : 4:2:0
Bit depth                        : 8 bits
Scan type                        : Progressive
Bits/(Pixel*Frame)               : 0.155
Stream size                      : 719 MiB (81%)
Writing library                  : XviD 1.1.0 (UTC 2005-11-22)

Audio #1
ID                               : 1
Format                           : MPEG Audio
Format version                   : Version 1
Format profile                   : Layer 3
Mode                             : Joint stereo
Mode extension                   : MS Stereo
Codec ID                         : 55
Codec ID/Hint                    : MP3
Duration                         : 1h 47mn
Bit rate mode                    : Constant
Bit rate                         : 96.0 Kbps
Channel(s)                       : 2 channels
Sampling rate                    : 48.0 KHz
Stream size                      : 74.1 MiB (8%)
Alignment                        : Aligned on interleaves
Interleave, duration             : 738 ms (17.70 video frames)
Interleave, preload duration     : 216 ms
Writing library                  : LAME3.97

Audio #2
ID                               : 2
Format                           : MPEG Audio
Format version                   : Version 1
Format profile                   : Layer 3
Mode                             : Joint stereo
Mode extension                   : MS Stereo
Codec ID                         : 55
Codec ID/Hint                    : MP3
Duration                         : 1h 43mn
Bit rate mode                    : Constant
Bit rate                         : 128 Kbps
Channel(s)                       : 2 channels
Sampling rate                    : 44.1 KHz
Stream size                      : 94.9 MiB (11%)
Alignment                        : Aligned on interleaves
Interleave, duration             : 757 ms (18.15 video frames)
Interleave, preload duration     : 208 ms
Title                            : CurrentHD
Writing library                  : LAME3.96.1



Part III

General                          : Back To The Future Part III(1990) BRRip(Dual audio)[Eng Hindi]Current_HD
Format                           : AVI
Format/Info                      : Audio Video Interleave
Format profile                   : OpenDML
File size                        : 899 MiB
Duration                         : 1h 58mn
Overall bit rate                 : 1 064 Kbps
Writing application              : AVI-Mux GUI 

Video
ID                               : 0
Format                           : MPEG-4 Visual
Format profile                   : Advanced Simple@L5
Format settings, BVOP            : Yes
Format settings, QPel            : No
Format settings, GMC             : No warppoints
Format settings, Matrix          : Default (H.263)
Codec ID                         : DX50
Codec ID/Hint                    : DivX 5
Duration                         : 1h 58mn
Bit rate                         : 842 Kbps
Width                            : 680 pixels
Height                           : 368 pixels
Display aspect ratio             : 16:9
Frame rate                       : 23.976 fps
Color space                      : YUV
Chroma subsampling               : 4:2:0
Bit depth                        : 8 bits
Scan type                        : Progressive
Bits/(Pixel*Frame)               : 0.140
Stream size                      : 712 MiB (79%)
Writing library                  : XviD 1.1.0 (UTC 2005-11-22)

Audio #1
ID                               : 1
Format                           : MPEG Audio
Format version                   : Version 1
Format profile                   : Layer 3
Mode                             : Joint stereo
Mode extension                   : MS Stereo
Codec ID                         : 55
Codec ID/Hint                    : MP3
Duration                         : 1h 58mn
Bit rate mode                    : Constant
Bit rate                         : 96.0 Kbps
Channel(s)                       : 2 channels
Sampling rate                    : 48.0 KHz
Stream size                      : 81.2 MiB (9%)
Alignment                        : Aligned on interleaves
Interleave, duration             : 796 ms (19.08 video frames)
Interleave, preload duration     : 216 ms

Audio #2
ID                               : 2
Format                           : MPEG Audio
Format version                   : Version 1
Format profile                   : Layer 3
Mode                             : Joint stereo
Mode extension                   : MS Stereo
Codec ID                         : 55
Codec ID/Hint                    : MP3
Duration                         : 1h 52mn
Bit rate mode                    : Constant
Bit rate                         : 128 Kbps
Channel(s)                       : 2 channels
Sampling rate                    : 44.1 KHz
Stream size                      : 103 MiB (11%)
Alignment                        : Aligned on interleaves
Interleave, duration             : 818 ms (19.62 video frames)
Interleave, preload duration     : 208 ms
Title                            : CurrentHD
Writing library                  : LAME3.96.1



Screenshots

 
http://img8.imageshack.us/img8/8417/80356858.jpg[/IMG] 
http://img529.imageshack.us/img529/2259/88070051.jpg 
http://img143.imageshack.us/img143/9922/97963916.jpg 
http://img528.imageshack.us/img528/6350/40455619.jpg 
http://img440.imageshack.us/img440/646/85134802.jpg 
http://img705.imageshack.us/img705/7084/63401006.jpg 
http://img842.imageshack.us/img842/9756/14712851.jpg 
http://img843.imageshack.us/img843/9246/40438361.jpg 
http://img593.imageshack.us/img593/7264/33862322.jpg 
http://img99.imageshack.us/img99/9762/91839530.jpg 
http://img684.imageshack.us/img684/9186/45600262.jpg 
http://img703.imageshack.us/img703/2656/39512538.jpg 
http://img696.imageshack.us/img696/6315/82224569.jpg 
http://img13.imageshack.us/img13/314/16314018.jpg 
http://img819.imageshack.us/img819/5168/10837456.jpg 
http://img545.imageshack.us/img545/319/92933066.jpg 
http://img254.imageshack.us/img254/2803/64171739.jpg












